<svg xmlns="http://www.w3.org/2000/svg" width="45.184" height="48.411" viewBox="0 0 45.184 48.411">
  <g id="energy_1_" data-name="energy (1)" transform="translate(-4 -2)">
    <path id="Path_157166" data-name="Path 157166" d="M37.888,2a4.843,4.843,0,0,0-4.566,3.227h-6.73A22.592,22.592,0,1,0,49.184,27.819a1.614,1.614,0,0,0-3.227,0A19.364,19.364,0,1,1,26.592,8.455h6.73a4.843,4.843,0,0,0,4.566,3.227h3.227a1.613,1.613,0,0,0,1.4-.807h2.636a1.614,1.614,0,1,0,0-3.227H42.729V6.034h2.421a1.614,1.614,0,1,0,0-3.227H42.513A1.613,1.613,0,0,0,41.115,2Z" fill="#029b47"/>
    <path id="Path_157167" data-name="Path 157167" d="M32.939,19.54a1.54,1.54,0,0,0-2.747-.957L21.334,29.752a1.54,1.54,0,0,0,1.207,2.5h3.081v7.317a1.541,1.541,0,0,0,2.743.962l9.243-11.553a1.54,1.54,0,0,0-1.2-2.5H32.939Z" transform="translate(-2.881 -2.504)" fill="#029b47"/>
  </g>
</svg>
