<svg id="money" xmlns="http://www.w3.org/2000/svg" width="129.483" height="129.495" viewBox="0 0 129.483 129.495">
  <path id="Path_29" data-name="Path 29" d="M125.166,82.012h-18.3A60.7,60.7,0,0,0,84.328,47.823a6.439,6.439,0,0,0-1.8-10.529l5.611-19.813a8.621,8.621,0,0,0-8.274-11h-3.9a12.948,12.948,0,0,0-22.443,0H49.614a8.619,8.619,0,0,0-8.27,10.989l5.611,19.824a6.44,6.44,0,0,0-1.793,10.533A61.182,61.182,0,0,0,22.617,82.012H6.475A6.446,6.446,0,0,0,1.685,92.8a6.375,6.375,0,0,0,0,8.632,6.411,6.411,0,0,0,1.338,9.774,6.258,6.258,0,0,0,0,6.349,6.461,6.461,0,0,0,3.453,11.932H41a6.457,6.457,0,0,0,5.742-3.548,47.566,47.566,0,0,0,18,3.548h60.424a4.316,4.316,0,0,0,4.316-4.316V86.328A4.316,4.316,0,0,0,125.166,82.012Zm0,10.484A8.613,8.613,0,0,1,119,86.328h6.168Zm-75.53-47.17a2.158,2.158,0,0,1,0-4.316H79.848a2.158,2.158,0,0,1,0,4.316ZM46.2,12.511A4.249,4.249,0,0,1,49.612,10.8h2.374a13.022,13.022,0,0,0-.192,2.158v8.632a2.158,2.158,0,1,0,4.316,0V12.956A8.55,8.55,0,0,1,56.826,9.5h0a8.632,8.632,0,0,1,15.827,0h0a8.55,8.55,0,0,1,.721,3.453v8.632a2.158,2.158,0,0,0,4.316,0V12.956A13.021,13.021,0,0,0,77.5,10.8h2.374a4.316,4.316,0,0,1,4.117,5.5l-5.771,20.4H51.267L45.494,16.286A4.266,4.266,0,0,1,46.2,12.511ZM6.475,86.328H41a2.158,2.158,0,0,1,0,4.316H6.475a2.158,2.158,0,0,1,0-4.316Zm0,28.054a2.158,2.158,0,0,1,2.158-2.158H43.162a2.158,2.158,0,1,1,0,4.316H8.633A2.158,2.158,0,0,1,6.475,114.382Zm0-6.474a2.158,2.158,0,1,1,0-4.316H41a2.158,2.158,0,1,1,0,4.316ZM4.317,97.118A2.158,2.158,0,0,1,6.475,94.96H41a2.158,2.158,0,0,1,0,4.316H6.475A2.158,2.158,0,0,1,4.317,97.118ZM41,125.173H6.475a2.158,2.158,0,1,1,0-4.316H41a2.158,2.158,0,0,1,0,4.316Zm6.258-3.72a6.473,6.473,0,0,0-.647-1.612,6.437,6.437,0,0,0,0-10.915,6.325,6.325,0,0,0-.82-7.49,6.375,6.375,0,0,0,0-8.632A6.446,6.446,0,0,0,41,82.012H27.035c3.19-12.706,12.778-26.17,23.216-32.37h28.98c13.246,7.851,24.355,26.479,24.355,41,0,19.038-17.426,34.528-38.844,34.528A43.134,43.134,0,0,1,47.262,121.452ZM107.9,90.644a36.471,36.471,0,0,0-.3-4.316h6.964a12.965,12.965,0,0,0,10.6,10.6v17.653a12.965,12.965,0,0,0-10.6,10.6H84.425C98.344,118.718,107.9,105.679,107.9,90.644ZM119,125.173A8.613,8.613,0,0,1,125.166,119v6.168Z" transform="translate(0.001 0.007)" fill="#029b47"/>
  <path id="Path_30" data-name="Path 30" d="M55.93,55.86A4.93,4.93,0,1,0,51,50.93,4.93,4.93,0,0,0,55.93,55.86Zm0-6.573a1.643,1.643,0,1,1-1.643,1.643A1.643,1.643,0,0,1,55.93,49.287Z" transform="translate(63.693 60.488)" fill="#029b47"/>
  <text id="KD" transform="translate(67.392 93.578)" fill="#029b47" font-size="23" font-family="SegoeUIBlack, Segoe UI"><tspan x="-16.66" y="0">KD</tspan></text>
</svg>
