<svg id="_17-Loan" data-name="17-Loan" xmlns="http://www.w3.org/2000/svg" width="115.518" height="115.52" viewBox="0 0 115.518 115.52">
  <path id="Path_37" data-name="Path 37" d="M115.76,49.967a6.02,6.02,0,0,0-8.5,0l-3.851,3.851a5.764,5.764,0,0,0-5.377,1.527l-37.71,37.71a1.925,1.925,0,0,0-.491.833l-3.851,13.477a1.926,1.926,0,0,0,1.852,2.454,1.946,1.946,0,0,0,.528-.073l13.477-3.851a1.925,1.925,0,0,0,.833-.491l37.146-37.145,1.078,1.079a2.8,2.8,0,0,1,0,3.948L102.682,81.5a1.925,1.925,0,1,0,2.723,2.723l8.216-8.216a6.648,6.648,0,0,0,0-9.394l-1.71-1.71a5.793,5.793,0,0,0,0-2.588l3.851-3.851a6.018,6.018,0,0,0,0-8.5ZM64.408,94.416,76.126,82.7l6.9,6.9L71.312,101.32Zm-1.77,3.675,5,5-7,2ZM85.752,86.88l-6.9-6.9,21.908-21.907a1.925,1.925,0,0,1,2.722,0l4.182,4.182a1.928,1.928,0,0,1,0,2.722Zm27.286-31.136-3.219,3.219-3.053-3.053,3.219-3.219a2.159,2.159,0,1,1,3.054,3.054ZM63.611,32.805A30.805,30.805,0,1,0,32.805,63.611,30.805,30.805,0,0,0,63.611,32.805Zm-57.76,0A26.955,26.955,0,1,1,32.805,59.76,26.955,26.955,0,0,1,5.851,32.805ZM65.536,17.4H79.674a5.811,5.811,0,0,1,1.265.15v9.477a5.782,5.782,0,0,0,5.776,5.776h9.476a5.78,5.78,0,0,1,.15,1.264V48.208a1.925,1.925,0,1,0,3.851,0V34.07a9.565,9.565,0,0,0-2.82-6.806L86.482,16.371a9.565,9.565,0,0,0-6.808-2.819H65.536a1.925,1.925,0,0,0,0,3.851ZM93.618,28.955h-6.9a1.927,1.927,0,0,1-1.925-1.925v-6.9Zm6.574,59.685v19.253a9.638,9.638,0,0,1-9.627,9.627H28.955a9.638,9.638,0,0,1-9.627-9.627V67.461a1.925,1.925,0,1,1,3.851,0v40.432a5.782,5.782,0,0,0,5.776,5.776H90.566a5.782,5.782,0,0,0,5.776-5.776V88.64a1.925,1.925,0,1,1,3.851,0ZM55.909,32.805a23.1,23.1,0,1,0-23.1,23.1A23.1,23.1,0,0,0,55.909,32.805Zm-42.357,0A19.253,19.253,0,1,1,32.805,52.059,19.253,19.253,0,0,1,13.552,32.805ZM52.059,92.491a1.925,1.925,0,0,1,0,3.851H30.88a1.925,1.925,0,1,1,0-3.851Zm9.627-7.7H30.88a1.925,1.925,0,1,1,0-3.851H61.685a1.925,1.925,0,1,1,0,3.851Zm11.552-15.4a1.925,1.925,0,1,1,0,3.851h-7.7a1.925,1.925,0,0,1-1.925-1.925c0-1.063,1.925-1.925,1.925-1.925ZM28.955,71.312a1.925,1.925,0,0,1,1.925-1.925H57.835a1.925,1.925,0,1,1,0,3.851H30.88A1.925,1.925,0,0,1,28.955,71.312ZM84.79,61.685H59.76a1.925,1.925,0,1,1,0-3.851H84.79a1.925,1.925,0,1,1,0,3.851ZM88.64,50.133H67.461a1.925,1.925,0,1,1,0-3.851H88.64a1.925,1.925,0,1,1,0,3.851ZM69.387,38.581a1.925,1.925,0,1,1,0-3.851h7.7a1.925,1.925,0,0,1,0,3.851Z" transform="translate(-2 -2)" fill="#029b47"/>
  <text id="KD" transform="translate(45.54 38.098)" fill="#029b47" font-size="24" font-family="SegoeUIBlack, Segoe UI"><tspan x="-34.77" y="0">KD</tspan></text>
</svg>
