<svg xmlns="http://www.w3.org/2000/svg" width="49.571" height="46.529" viewBox="0 0 49.571 46.529">
  <g id="social-care_1_" data-name="social-care (1)" transform="translate(-4 -5.718)">
    <path id="Path_157192" data-name="Path 157192" d="M53.16,34.651l-2.187,4.924a2.637,2.637,0,0,1-1.567,3.02l-7.563,2.9a.886.886,0,1,1-.629-1.656l7.554-2.9a.889.889,0,0,0,.416-1.178A2.064,2.064,0,0,0,46.6,38.432l-8.749,3.356A5.779,5.779,0,0,0,34.3,46.2l-.8,4.242,5.057,4.977,2.719-3.347a6.518,6.518,0,0,1,1.807-1.7l7.4-3.941a4.694,4.694,0,0,0,1.9-2.453l3.64-9.529c.367-1.852-2.586-1.127-2.869.2Z" transform="translate(-3.387 -3.17)" fill="#029b47"/>
    <path id="Path_157193" data-name="Path 157193" d="M23.223,41.79l-8.749-3.356a2.064,2.064,0,0,0-2.586,1.328A.889.889,0,0,0,12.3,40.94l7.554,2.9a.886.886,0,1,1-.629,1.656l-7.563-2.9a2.637,2.637,0,0,1-1.567-3.02L7.894,34.608a1.945,1.945,0,0,0-1.7-1.249l-.345-.018a.819.819,0,0,0-.815,1.071L8.691,44a4.7,4.7,0,0,0,1.957,2.462l7.279,3.879a6.446,6.446,0,0,1,1.9,1.78l2.683,3.294,5.057-4.977-.8-4.242a5.779,5.779,0,0,0-3.551-4.41Z" transform="translate(-0.114 -3.171)" fill="#029b47"/>
    <path id="Path_157194" data-name="Path 157194" d="M31.132,19.041c8.805-.319,8.811-13,0-13.322C22.309,6.035,22.316,18.725,31.132,19.041Z" transform="translate(-2.355)" fill="#029b47"/>
    <path id="Path_157195" data-name="Path 157195" d="M18.46,26.588s0,2.6.009,2.647a2.264,2.264,0,0,0,2.266,2.133H40.13A2.276,2.276,0,0,0,42.4,29.1V26.588A5.811,5.811,0,0,0,38.041,21l-1.992-.664a8.486,8.486,0,0,1-11.224,0L22.842,21a5.789,5.789,0,0,0-4.382,5.586Z" transform="translate(-1.66 -1.678)" fill="#029b47"/>
    <path id="Path_157196" data-name="Path 157196" d="M48.166,19.229c7.347-.258,7.344-10.845,0-11.1C40.822,8.391,40.82,18.965,48.166,19.229Z" transform="translate(-4.438 -0.277)" fill="#029b47"/>
    <path id="Path_157197" data-name="Path 157197" d="M55.055,20.631l-1.345-.443a7.335,7.335,0,0,1-8.179,1.558,7.462,7.462,0,0,1,1.753,4.824v2.514a.669.669,0,0,1-.009.133h9.064a2,2,0,0,0,2-2V25.19a4.8,4.8,0,0,0-3.284-4.559Z" transform="translate(-4.768 -1.661)" fill="#029b47"/>
    <path id="Path_157198" data-name="Path 157198" d="M14.406,19.229c7.335-.26,7.332-10.842,0-11.1C7.061,8.384,7.059,18.972,14.406,19.229Z" transform="translate(-0.562 -0.277)" fill="#029b47"/>
    <path id="Path_157199" data-name="Path 157199" d="M15.038,29.217c-.1-2.579-.1-5.464,1.735-7.462A7.313,7.313,0,0,1,8.63,20.188l-1.346.443A4.8,4.8,0,0,0,4,25.19v2.027a2,2,0,0,0,2,2Z" transform="translate(0 -1.661)" fill="#029b47"/>
  </g>
</svg>
