<svg xmlns="http://www.w3.org/2000/svg" width="45.961" height="48.467" viewBox="0 0 45.961 48.467">
  <g id="satellite-dish_1_" data-name="satellite-dish (1)" transform="translate(-13.236)">
    <path id="Path_157208" data-name="Path 157208" d="M330.995,0V2.84a13.057,13.057,0,0,1,13.042,13.042h2.84A15.9,15.9,0,0,0,330.995,0Z" transform="translate(-287.679)" fill="#029b47"/>
    <path id="Path_157209" data-name="Path 157209" d="M330.995,60v2.84a7.37,7.37,0,0,1,7.362,7.362h2.84A10.213,10.213,0,0,0,330.995,60Z" transform="translate(-287.679 -54.32)" fill="#029b47"/>
    <path id="Path_157210" data-name="Path 157210" d="M30.883,329.736a2.8,2.8,0,0,0-5.508,0l-2.136,12.315h-10v2.84H43.022v-2.84h-10Z" transform="translate(0 -296.424)" fill="#029b47"/>
    <path id="Path_157211" data-name="Path 157211" d="M88.032,118.15A16.339,16.339,0,0,0,86.1,138.927a5.635,5.635,0,0,1,10.965.6l1.118,6.446a16.3,16.3,0,0,0,12.95-4.723l.292-.292-23.1-23.1Z" transform="translate(-63.384 -106.701)" fill="#029b47"/>
    <path id="Path_157212" data-name="Path 157212" d="M261.044,137.445l2.537-4.868a3.1,3.1,0,1,0-2.12-2.12l-4.868,2.537Z" transform="translate(-220.321 -114.521)" fill="#029b47"/>
  </g>
</svg>
