<svg id="pollution" xmlns="http://www.w3.org/2000/svg" width="44.654" height="44.654" viewBox="0 0 44.654 44.654">
  <path id="Path_157234" data-name="Path 157234" d="M177.143,111.955H180c.163,0,.325.009.484.022v-8.47h-3.342Z" transform="translate(-161.668 -94.436)" fill="#029b47"/>
  <path id="Path_157235" data-name="Path 157235" d="M98.857,75.191h4.126V88.478H98.857Z" transform="translate(-90.217 -68.766)" fill="#029b47"/>
  <path id="Path_157236" data-name="Path 157236" d="M112.285,371.522a2.622,2.622,0,0,0-2.022,1,5.047,5.047,0,0,1-7.534,0,2.622,2.622,0,0,0-2.022-1,2.41,2.41,0,0,0-1.849.842v3.548a4.8,4.8,0,0,1,1.849-.348,5.125,5.125,0,0,1,3.767,1.688,2.541,2.541,0,0,0,4.044,0,5.047,5.047,0,0,1,7.535,0,2.541,2.541,0,0,0,4.044,0,5.048,5.048,0,0,1,7.535,0,2.541,2.541,0,0,0,4.045,0,5.65,5.65,0,0,1,2.486-1.53v-3.828a6.73,6.73,0,0,0-.74.63,5.048,5.048,0,0,1-7.535,0,2.541,2.541,0,0,0-4.044,0,5.048,5.048,0,0,1-7.535,0A2.622,2.622,0,0,0,112.285,371.522Z" transform="translate(-89.507 -338.872)" fill="#029b47"/>
  <path id="Path_157237" data-name="Path 157237" d="M134.161,449.2a6.709,6.709,0,0,0-.74.629,5.048,5.048,0,0,1-7.535,0,2.541,2.541,0,0,0-4.044,0,5.048,5.048,0,0,1-7.535,0,2.541,2.541,0,0,0-4.044,0,5.047,5.047,0,0,1-7.534,0,2.622,2.622,0,0,0-2.022-1,2.41,2.41,0,0,0-1.849.842v4.556h35.3Z" transform="translate(-89.507 -409.575)" fill="#029b47"/>
  <path id="Path_157238" data-name="Path 157238" d="M5.884,0H0V44.65l5.884,0Z" fill="#029b47"/>
  <path id="Path_157239" data-name="Path 157239" d="M246.251,115.977a5.54,5.54,0,0,1,2.493,4.624v6.626a6.021,6.021,0,0,1,2.106,1.413,2.541,2.541,0,0,0,4.044,0,5.125,5.125,0,0,1,3.767-1.688,4.827,4.827,0,0,1,1.777.319l-1.175-7.053A16.274,16.274,0,0,0,246.251,106.9Z" transform="translate(-224.566 -97.376)" fill="#029b47"/>
</svg>
