<svg xmlns="http://www.w3.org/2000/svg" width="46.529" height="46.62" viewBox="0 0 46.529 46.62">
  <path id="harvest_1_" data-name="harvest (1)" d="M40.633,23.686a6.815,6.815,0,0,0,6.823-6.823v-.8a.573.573,0,0,0-.581-.581h-.8A6.835,6.835,0,0,0,40.343,18.6V16.282l.363-.363a6.7,6.7,0,0,0,0-9.582l-.581-.581a.57.57,0,0,0-.8,0l-.581.581a6.634,6.634,0,0,0-1.96,4.791,6.943,6.943,0,0,0,1.96,4.791l.363.363V18.6a6.835,6.835,0,0,0-5.734-3.121h-.8a.573.573,0,0,0-.581.581v.871a6.815,6.815,0,0,0,6.823,6.823h.218v3.049A6.835,6.835,0,0,0,33.3,23.686h-.8a.573.573,0,0,0-.581.581v.653a6.815,6.815,0,0,0,6.823,6.823h.218v3.049a6.835,6.835,0,0,0-5.734-3.121h-.8a.573.573,0,0,0-.581.581v.8a6.815,6.815,0,0,0,6.823,6.823h.218v3.121A44.978,44.978,0,0,0,24.3,40.308V35.227h.218A6.815,6.815,0,0,0,31.342,28.4v-.8a.573.573,0,0,0-.581-.581h-.8a6.835,6.835,0,0,0-5.734,3.121V27.1h.218a6.815,6.815,0,0,0,6.823-6.823v-.8a.573.573,0,0,0-.581-.581h-.8a6.835,6.835,0,0,0-5.734,3.121V18.968h.218A6.815,6.815,0,0,0,31.2,12.144v-.8a.573.573,0,0,0-.581-.581h-.8a6.835,6.835,0,0,0-5.734,3.121V11.564l.363-.363a6.7,6.7,0,0,0,0-9.582l-.581-.581a.57.57,0,0,0-.8,0l.218.653a6.7,6.7,0,0,0,0,9.582l.363.363v2.4a6.835,6.835,0,0,0-5.734-3.121h-.8a.573.573,0,0,0-.581.581v.8a6.815,6.815,0,0,0,6.823,6.823h.218v3.049A6.835,6.835,0,0,0,17.84,19.04h-.8a.573.573,0,0,0-.581.581v.8a6.815,6.815,0,0,0,6.823,6.823H23.5v3.049a6.835,6.835,0,0,0-5.734-3.121h-.8a.573.573,0,0,0-.581.581v.8a6.815,6.815,0,0,0,6.823,6.823h.218v5.081A46.874,46.874,0,0,0,8.84,43.067V39.945h.218a6.815,6.815,0,0,0,6.823-6.823v-.8a.573.573,0,0,0-.581-.581h-.8a6.835,6.835,0,0,0-5.734,3.121V31.816h.218a6.815,6.815,0,0,0,6.823-6.823v-.8a.573.573,0,0,0-.581-.581h-.8a6.835,6.835,0,0,0-5.734,3.121V23.686h.218a6.815,6.815,0,0,0,6.823-6.823v-.8a.573.573,0,0,0-.581-.581h-.8A6.835,6.835,0,0,0,8.622,18.6V16.282l.363-.363a6.7,6.7,0,0,0,0-9.582V5.757a.57.57,0,0,0-.8,0l-.581.581a6.634,6.634,0,0,0-1.96,4.791,6.943,6.943,0,0,0,1.96,4.791l.363.363V18.6a6.835,6.835,0,0,0-5.734-3.121H1.581A.573.573,0,0,0,1,16.064v.871a6.815,6.815,0,0,0,6.823,6.823h.218v3.049a6.835,6.835,0,0,0-5.734-3.121H1.581c-.363-.073-.581.145-.581.508v.726a6.815,6.815,0,0,0,6.823,6.823h.218v3.049A6.835,6.835,0,0,0,2.307,31.67H1.581A.573.573,0,0,0,1,32.251v.8a6.815,6.815,0,0,0,6.823,6.823h.218v3.484A56.018,56.018,0,0,0,1.29,46.478a.518.518,0,0,0-.218.726.518.518,0,0,0,.726.218c14.735-8.057,29.761-8.057,44.859,0h.29a.548.548,0,0,0,.508-.29.5.5,0,0,0-.218-.726,46.135,46.135,0,0,0-6.751-3.049V39.8h.218a6.815,6.815,0,0,0,6.823-6.823v-.8a.573.573,0,0,0-.581-.581h-.8a6.835,6.835,0,0,0-5.734,3.121V31.67h.218a6.815,6.815,0,0,0,6.823-6.823v-.653a.573.573,0,0,0-.581-.581h-.8a6.835,6.835,0,0,0-5.734,3.121V23.686Z" transform="translate(-1 -0.875)" fill="#029b47"/>
</svg>
