<svg id="project-management_1_" data-name="project-management (1)" xmlns="http://www.w3.org/2000/svg" width="120.631" height="120.631" viewBox="0 0 120.631 120.631">
  <path id="Path_135731" data-name="Path 135731" d="M96.313,338.178a15.839,15.839,0,1,1,9.007-28.863,1.9,1.9,0,1,1-2.167,3.124,12.041,12.041,0,1,0,3.409,3.593,1.9,1.9,0,0,1,3.234-2,15.834,15.834,0,0,1-13.483,24.145Zm0-7.6a8.236,8.236,0,1,1,8.236-8.236A8.236,8.236,0,0,1,96.313,330.576Zm0-12.671a4.435,4.435,0,1,0,4.435,4.435A4.435,4.435,0,0,0,96.313,317.9Z" transform="translate(-64.635 -233.387)" fill="#029b47"/>
  <path id="Path_135732" data-name="Path 135732" d="M130.394,275.932a1.9,1.9,0,0,0-1.9,1.9v9.546a3.171,3.171,0,0,1-3.168,3.168H75.673A4.485,4.485,0,0,0,75,289.451l-2.806-3.367q.421-.907.767-1.844l4.362-.4a4.414,4.414,0,0,0,4.034-4.417v-7.5a4.414,4.414,0,0,0-4.033-4.417l-4.363-.4q-.345-.935-.767-1.844L75,261.9a4.413,4.413,0,0,0-.271-5.975l-5.3-5.3a4.413,4.413,0,0,0-5.975-.271l-3.368,2.807q-.907-.421-1.844-.767l-.4-4.362A4.414,4.414,0,0,0,53.427,244h-7.5a4.413,4.413,0,0,0-4.416,4.033l-.4,4.363q-.935.345-1.844.767L35.9,250.356a4.414,4.414,0,0,0-5.975.271l-5.3,5.3a4.414,4.414,0,0,0-.271,5.975l2.806,3.368q-.421.907-.767,1.844l-4.363.4A4.414,4.414,0,0,0,18,271.929v7.5a4.414,4.414,0,0,0,4.033,4.417l4.363.4q.345.935.767,1.844l-2.806,3.368a4.414,4.414,0,0,0,.271,5.975l5.3,5.3A4.414,4.414,0,0,0,35.9,301l3.368-2.807q.907.421,1.844.767l.4,4.362a4.413,4.413,0,0,0,4.417,4.034h7.5a4.413,4.413,0,0,0,4.416-4.033l.4-4.363q.935-.345,1.844-.767L63.452,301a4.413,4.413,0,0,0,5.975-.271l5.3-5.3a4.474,4.474,0,0,0,.794-1.08h49.8a6.977,6.977,0,0,0,6.969-6.969v-9.546a1.9,1.9,0,0,0-1.9-1.9ZM72.041,292.739l-5.3,5.3a.631.631,0,0,1-.853.039l-4.319-3.6a1.9,1.9,0,0,0-2.106-.219,20.834,20.834,0,0,1-3.564,1.483,1.9,1.9,0,0,0-1.33,1.643l-.509,5.592a.63.63,0,0,1-.631.575h-7.5a.63.63,0,0,1-.631-.576l-.509-5.592a1.9,1.9,0,0,0-1.33-1.643,20.831,20.831,0,0,1-3.564-1.483,1.9,1.9,0,0,0-2.106.219l-4.319,3.6a.63.63,0,0,1-.854-.039l-5.3-5.3a.63.63,0,0,1-.039-.854l3.6-4.319a1.9,1.9,0,0,0,.219-2.106,20.8,20.8,0,0,1-1.483-3.563,1.9,1.9,0,0,0-1.643-1.33l-5.593-.509a.631.631,0,0,1-.575-.631v-7.5a.63.63,0,0,1,.576-.631l5.592-.509a1.9,1.9,0,0,0,1.643-1.33A20.807,20.807,0,0,1,31.1,265.9a1.9,1.9,0,0,0-.219-2.106l-3.6-4.319a.63.63,0,0,1,.039-.854l5.3-5.3a.631.631,0,0,1,.853-.039l4.319,3.6a1.9,1.9,0,0,0,2.106.22,20.8,20.8,0,0,1,3.564-1.483,1.9,1.9,0,0,0,1.33-1.643l.509-5.593a.63.63,0,0,1,.631-.576h7.5a.63.63,0,0,1,.631.576l.509,5.592a1.9,1.9,0,0,0,1.33,1.643A20.8,20.8,0,0,1,59.46,257.1a1.9,1.9,0,0,0,2.106-.22l4.319-3.6a.63.63,0,0,1,.853.039l5.3,5.3a.63.63,0,0,1,.039.854l-3.6,4.319a1.9,1.9,0,0,0-.219,2.106,20.81,20.81,0,0,1,1.483,3.564,1.9,1.9,0,0,0,1.643,1.33l5.592.509a.63.63,0,0,1,.575.63v7.5a.631.631,0,0,1-.576.631l-5.592.509a1.9,1.9,0,0,0-1.643,1.33,20.8,20.8,0,0,1-1.483,3.563,1.9,1.9,0,0,0,.219,2.106l3.6,4.319a.631.631,0,0,1-.038.854Z" transform="translate(-18 -186.726)" fill="#029b47"/>
  <path id="Path_135733" data-name="Path 135733" d="M268.28,137.979V141.4h-5.7a3.171,3.171,0,0,0-3.168,3.168v10.644a3.172,3.172,0,0,0,3.168,3.168h32.945a3.171,3.171,0,0,0,3.168-3.168V124.548a3.171,3.171,0,0,0-3.168-3.168h-6.336a3.171,3.171,0,0,0-3.168,3.168v3.421h-5.7a3.171,3.171,0,0,0-3.168,3.168v3.675h-5.7A3.171,3.171,0,0,0,268.28,137.979Zm0,16.6h-5.069V145.2h5.069Zm21.541-24.709v-4.688h5.069v29.4h-5.069Zm-8.87,6.842V131.77h5.069v22.808h-5.069Zm-8.87,6.589v-4.688h5.069v15.966h-5.069Z" transform="translate(-198.23 -95.181)" fill="#029b47"/>
  <circle id="Ellipse_5719" data-name="Ellipse 5719" cx="1.901" cy="1.901" r="1.901" transform="translate(97.763 12.334)" fill="#029b47"/>
  <circle id="Ellipse_5720" data-name="Ellipse 5720" cx="1.901" cy="1.901" r="1.901" transform="translate(77.742 12.334)" fill="#029b47"/>
  <circle id="Ellipse_5721" data-name="Ellipse 5721" cx="1.901" cy="1.901" r="1.901" transform="translate(57.721 12.334)" fill="#029b47"/>
  <circle id="Ellipse_5722" data-name="Ellipse 5722" cx="1.901" cy="1.901" r="1.901" transform="translate(37.701 12.334)" fill="#029b47"/>
  <path id="Path_135734" data-name="Path 135734" d="M115.534,182.069a1.9,1.9,0,0,0,1.9,1.9h27.877a1.9,1.9,0,0,0,0-3.8H117.435a1.9,1.9,0,0,0-1.9,1.9Z" transform="translate(-90.816 -139.07)" fill="#029b47"/>
  <path id="Path_135735" data-name="Path 135735" d="M158.156,214.169a1.9,1.9,0,1,0,0,3.8h9.918a1.9,1.9,0,1,0,0-3.8Z" transform="translate(-121.218 -164.455)" fill="#029b47"/>
  <path id="Path_135736" data-name="Path 135736" d="M117.435,217.97h4.435a1.9,1.9,0,1,0,0-3.8h-4.435a1.9,1.9,0,1,0,0,3.8Z" transform="translate(-90.816 -164.455)" fill="#029b47"/>
  <path id="Path_135737" data-name="Path 135737" d="M143.534,148.065a1.9,1.9,0,0,0,1.9,1.9h20.781a1.9,1.9,0,1,0,0-3.8H145.435a1.9,1.9,0,0,0-1.9,1.9Z" transform="translate(-111.72 -113.684)" fill="#029b47"/>
  <circle id="Ellipse_5723" data-name="Ellipse 5723" cx="1.901" cy="1.901" r="1.901" transform="translate(26.618 32.481)" fill="#029b47"/>
  <circle id="Ellipse_5724" data-name="Ellipse 5724" cx="1.901" cy="1.901" r="1.901" transform="translate(50.694 49.714)" fill="#029b47"/>
  <path id="Path_135738" data-name="Path 135738" d="M311.088,341.9a1.9,1.9,0,0,0-1.9-1.9H281.311a1.9,1.9,0,1,0,0,3.8h27.877A1.9,1.9,0,0,0,311.088,341.9Z" transform="translate(-213.162 -258.397)" fill="#029b47"/>
  <path id="Path_135739" data-name="Path 135739" d="M322.033,374a1.9,1.9,0,0,0,0,3.8h9.917a1.9,1.9,0,1,0,0-3.8Z" transform="translate(-243.564 -283.78)" fill="#029b47"/>
  <path id="Path_135740" data-name="Path 135740" d="M281.311,374a1.9,1.9,0,1,0,0,3.8h4.435a1.9,1.9,0,1,0,0-3.8Z" transform="translate(-213.162 -283.78)" fill="#029b47"/>
  <path id="Path_135741" data-name="Path 135741" d="M330.092,306H309.311a1.9,1.9,0,1,0,0,3.8h20.781a1.9,1.9,0,1,0,0-3.8Z" transform="translate(-234.066 -233.013)" fill="#029b47"/>
  <path id="Path_135742" data-name="Path 135742" d="M288.811,309.8a1.9,1.9,0,1,0-1.9-1.9,1.9,1.9,0,0,0,1.9,1.9Z" transform="translate(-218.761 -233.013)" fill="#029b47"/>
  <path id="Path_135743" data-name="Path 135743" d="M381.91,375.9a1.9,1.9,0,1,0,1.9-1.9,1.9,1.9,0,0,0-1.9,1.9Z" transform="translate(-289.686 -283.78)" fill="#029b47"/>
  <path id="Path_135744" data-name="Path 135744" d="M168.718,18a8.249,8.249,0,0,0-7.764,5.491H88.974a1.9,1.9,0,0,0-1.343.558l-17.74,17.74a1.9,1.9,0,0,0-.558,1.343v33.8a1.9,1.9,0,0,0,3.8,0v-31.9H83.905a6.977,6.977,0,0,0,6.969-6.969V27.293h69.608V91.186a1.9,1.9,0,0,0,.177.8l5.187,11.145a3.168,3.168,0,0,0,5.744,0l5.187-11.144a1.9,1.9,0,0,0,.177-.8V26.236A8.245,8.245,0,0,0,168.718,18ZM83.905,41.231H75.822l11.251-11.25v8.083a3.171,3.171,0,0,1-3.168,3.168Zm89.248,49.534-4.435,9.529-4.435-9.529V40.808h8.87Zm0-53.758h-8.87v-3.8h8.87Zm0-7.6h-8.87V26.236a4.435,4.435,0,0,1,8.87,0Z" transform="translate(-56.324 -18)" fill="#029b47"/>
</svg>
