<svg xmlns="http://www.w3.org/2000/svg" width="64.449" height="49.845" viewBox="0 0 64.449 49.845">
  <g id="navigator" transform="translate(0.508 -6.858)">
    <g id="Group_50068" data-name="Group 50068" transform="translate(0 27.599)">
      <g id="Group_50066" data-name="Group 50066" transform="translate(0 0)">
        <g id="Group_50061" data-name="Group 50061" transform="translate(0 0.18)">
          <path id="Path_157200" data-name="Path 157200" d="M19.27,56.381a.943.943,0,0,1-.272-.04L.69,50.958a.96.96,0,0,1-.563-1.4L12.189,28.451a.956.956,0,0,1,1.133-.436l11.2,3.662a.961.961,0,0,1,.641,1.117L20.209,55.625a.956.956,0,0,1-.939.756ZM2.4,49.457l16.151,4.751L23.1,33.233l-9.632-3.148Z" transform="translate(0 -27.966)" fill="#fff" stroke="#fff" stroke-width="1"/>
        </g>
        <g id="Group_50062" data-name="Group 50062" transform="translate(18.308 0.182)">
          <path id="Path_157201" data-name="Path 157201" d="M19.435,56.38a.961.961,0,0,1-.255-1.887l21.11-5.813a.963.963,0,0,1,.5,0l20.024,5.271L50.527,33.369,40.338,29.837a.961.961,0,1,1,.629-1.816l10.559,3.661a.961.961,0,0,1,.545.479L63.486,54.99a.961.961,0,0,1-1.1,1.359L40.552,50.6l-20.86,5.743A1.006,1.006,0,0,1,19.435,56.38Z" transform="translate(-18.475 -27.967)" fill="#fff" stroke="#fff" stroke-width="1"/>
        </g>
        <g id="Group_50063" data-name="Group 50063" transform="translate(23.266)">
          <path id="Path_157202" data-name="Path 157202" d="M24.439,33.548a.961.961,0,0,1-.3-1.874l11.694-3.843a.961.961,0,0,1,.6,1.825L24.739,33.5A.938.938,0,0,1,24.439,33.548Z" transform="translate(-23.478 -27.784)" fill="#fff" stroke="#fff" stroke-width="1"/>
        </g>
        <g id="Group_50064" data-name="Group 50064" transform="translate(20.691 5.781)">
          <path id="Path_157203" data-name="Path 157203" d="M50.644,53.271a.962.962,0,0,1-.922-.688L45.285,37.607l-6.526-2.016-6.6,2.357v5.031a.96.96,0,0,1-.808.948l-9.356,1.511a.961.961,0,0,1-.306-1.9l8.549-1.38v-4.89a.96.96,0,0,1,.638-.9l7.538-2.692a.955.955,0,0,1,.606-.013l7.324,2.261a.963.963,0,0,1,.638.645l4.584,15.471a.961.961,0,0,1-.648,1.194.948.948,0,0,1-.274.04Z" transform="translate(-20.881 -33.617)" fill="#fff" stroke="#fff" stroke-width="1"/>
        </g>
        <g id="Group_50065" data-name="Group 50065" transform="translate(9.092 5.377)">
          <path id="Path_157204" data-name="Path 157204" d="M23.011,39.567a.962.962,0,0,1-.313-.053L9.823,35.079a.961.961,0,1,1,.627-1.816L23.325,37.7a.961.961,0,0,1-.313,1.869Z" transform="translate(-9.176 -33.21)" fill="#fff" stroke="#fff" stroke-width="1"/>
        </g>
      </g>
      <g id="Group_50067" data-name="Group 50067" transform="translate(47.541 16.924)">
        <path id="Path_157205" data-name="Path 157205" d="M59.617,49.987a.947.947,0,0,1-.275-.041l-10.679-3.2a.961.961,0,1,1,.551-1.841l10.679,3.2a.961.961,0,0,1-.275,1.882Z" transform="translate(-47.976 -44.863)" fill="#fff" stroke="#fff" stroke-width="1"/>
      </g>
    </g>
    <g id="Group_50071" data-name="Group 50071" transform="translate(29.336 7.358)">
      <g id="Group_50069" data-name="Group 50069">
        <path id="Path_157206" data-name="Path 157206" d="M38.523,33.107a.958.958,0,0,1-.789-.413C36.9,31.494,29.6,20.843,29.6,16.278a8.919,8.919,0,1,1,17.839,0c0,4.564-7.3,15.216-8.131,16.416A.96.96,0,0,1,38.523,33.107Zm0-23.827a7.007,7.007,0,0,0-7,7c0,3,4.5,10.395,7,14.156,2.5-3.761,7-11.152,7-14.156A7.007,7.007,0,0,0,38.523,9.28Z" transform="translate(-29.604 -7.358)" fill="#fff" stroke="#fff" stroke-width="1"/>
      </g>
      <g id="Group_50070" data-name="Group 50070" transform="translate(4.498 4.273)">
        <path id="Path_157207" data-name="Path 157207" d="M38.565,20.512a4.421,4.421,0,1,1,4.422-4.422,4.427,4.427,0,0,1-4.422,4.422Zm0-6.921a2.5,2.5,0,1,0,2.5,2.5A2.5,2.5,0,0,0,38.565,13.591Z" transform="translate(-34.143 -11.67)" fill="#fff" stroke="#fff" stroke-width="1"/>
      </g>
    </g>
  </g>
</svg>
