<svg xmlns="http://www.w3.org/2000/svg" width="59" height="50.228" viewBox="0 0 59 50.228">
  <g id="group_3_" data-name="group (3)" transform="translate(-2.5 -213.886)">
    <g id="ICON" transform="translate(4.5 8.5)">
      <g id="Group_50056" data-name="Group 50056" transform="translate(-4.5 -8.5)">
        <path id="Path_154493" data-name="Path 154493" d="M47.049,250.338c3.72.573,8.37.259,11.119-.921,1.807-.776,2.832-1.968,2.832-3.346a9.227,9.227,0,0,0-2.021-5.752,1,1,0,0,0-1.568,1.242A7.242,7.242,0,0,1,59,246.071a1.267,1.267,0,0,1-.641.966,7.029,7.029,0,0,1-2.347,1,22.416,22.416,0,0,1-10.3-.015,15.95,15.95,0,0,0-2.841-3.092,7.965,7.965,0,0,1,8.018-6.45,8.453,8.453,0,0,1,4.569,1.321,1,1,0,1,0,1.078-1.684,10.219,10.219,0,0,0-2.009-1,5.554,5.554,0,0,0-5.817-9.3,10.07,10.07,0,0,0-4.81-3.683,5.554,5.554,0,1,0-7.276,0,10.213,10.213,0,0,0-2.9,1.64,8.766,8.766,0,0,0-3.446,0,10.213,10.213,0,0,0-2.9-1.64,5.554,5.554,0,1,0-7.276,0,10.072,10.072,0,0,0-4.81,3.683,5.554,5.554,0,0,0-5.817,9.3A9.63,9.63,0,0,0,3,246.071c0,1.378,1.025,2.57,2.832,3.346,2.749,1.18,7.4,1.494,11.119.921a14.772,14.772,0,0,0-1.385,6.252,4.812,4.812,0,0,0,2.361,3.933,1,1,0,0,0,1.146-1.638,2.906,2.906,0,0,1-1.507-2.3c0-7.5,6.483-13.554,14.434-13.554s14.434,6.057,14.434,13.554a2.688,2.688,0,0,1-1.2,2.066,11.194,11.194,0,0,1-3.757,1.767,38.758,38.758,0,0,1-17.412.395,1,1,0,1,0-.434,1.952c6.591,1.466,15.879,1,20.86-1.343,2.493-1.171,3.945-2.849,3.945-4.837a14.772,14.772,0,0,0-1.385-6.252Zm-25.923-5.406a7.965,7.965,0,0,0-8.018-6.45A7.864,7.864,0,0,0,5,246.071a1.267,1.267,0,0,0,.641.966,7.029,7.029,0,0,0,2.347,1,22.416,22.416,0,0,0,10.3-.015,15.978,15.978,0,0,1,2.841-3.092Zm2.812-7.295a21.457,21.457,0,0,1-6.759-.932,5.875,5.875,0,0,1-.432.418,9.822,9.822,0,0,1,6.143,6.523,16.781,16.781,0,0,1,4.432-1.97,8.741,8.741,0,0,1-3.384-4.039Zm23.315-.514a5.682,5.682,0,0,1-.432-.418,21.489,21.489,0,0,1-6.759.933,8.744,8.744,0,0,1-3.384,4.038,16.763,16.763,0,0,1,4.432,1.97,9.82,9.82,0,0,1,6.143-6.523Zm-.208-8.2a8.255,8.255,0,0,0-6.78-3.428,8.479,8.479,0,0,0-4.213,1.1,8.72,8.72,0,0,1,2.116,1.561,1,1,0,1,1-1.415,1.413,6.711,6.711,0,1,0,1.422,2.1,1,1,0,1,1,1.838-.787,8.758,8.758,0,0,1,.6,4.752,19.544,19.544,0,0,0,5.1-.677,5.557,5.557,0,0,1,1.324-6.038Zm3.847.451a3.554,3.554,0,1,1-3.555,3.555A3.557,3.557,0,0,1,50.892,229.373Zm-37.784,0a3.554,3.554,0,1,1-3.554,3.555A3.557,3.557,0,0,1,13.108,229.373Zm14.84-2.774a8.479,8.479,0,0,0-4.213-1.1,8.255,8.255,0,0,0-6.78,3.428,5.557,5.557,0,0,1,1.324,6.038,19.544,19.544,0,0,0,5.1.677,8.728,8.728,0,0,1,4.564-9.038Zm12.317-10.213a3.554,3.554,0,1,1-3.554,3.554A3.555,3.555,0,0,1,40.265,216.386Zm-16.53,0a3.554,3.554,0,1,1-3.554,3.554,3.555,3.555,0,0,1,3.554-3.554Z" fill="#fff" stroke="#fff" stroke-width="1" fill-rule="evenodd"/>
      </g>
      <g id="Group_50057" data-name="Group 50057" transform="translate(-9.411 -6.5)">
        <circle id="Ellipse_5771" data-name="Ellipse 5771" cx="1" cy="1" r="1" transform="translate(25 258)" fill="#fff" stroke="#fff" stroke-width="1"/>
      </g>
    </g>
  </g>
</svg>
