<svg xmlns="http://www.w3.org/2000/svg" width="51.011" height="51.507" viewBox="0 0 51.011 51.507">
  <g id="transportation" transform="translate(0.504 0.5)">
    <path id="Path_157213" data-name="Path 157213" d="M47.152,273.26,45.468,264H33.684L32,273.26l7.576-2.525Z" transform="translate(-28.633 -236.221)" fill="#029b47" stroke="#029b47" stroke-width="1"/>
    <path id="Path_157214" data-name="Path 157214" d="M14.46,343.152c1.824,0,1.824-1.684,3.648-1.684s1.822,1.684,3.645,1.684c1.47,0,1.767-1.083,2.778-1.507L28.2,331.367,18.1,328,8,331.367l3.669,10.276c1.019.421,1.315,1.509,2.791,1.509Z" transform="translate(-7.158 -293.487)" fill="#029b47" stroke="#029b47" stroke-width="1"/>
    <path id="Path_157215" data-name="Path 157215" d="M121.908,90.783A9.489,9.489,0,0,0,115.195,88H88l5.051,5.054,31.146.019Z" transform="translate(-78.741 -78.74)" fill="#f5fafc"/>
    <path id="Path_157216" data-name="Path 157216" d="M167.465,136.37l-.319-.319L136,136.032l.208.208a10.767,10.767,0,0,0,7.615,3.156h1.521l.747-1.684h5.047l-1.178,1.684h16.251a1.773,1.773,0,0,0,1.253-3.026Z" transform="translate(-121.69 -121.718)" fill="#029b47"/>
    <path id="Path_157217" data-name="Path 157217" d="M88,232h3.367v3.367H88Z" transform="translate(-78.741 -207.588)" fill="#029b47" stroke="#029b47" stroke-width="1"/>
    <path id="Path_157218" data-name="Path 157218" d="M232,304v15.152h4.209a2.525,2.525,0,0,1,5.051,0h7.576V304Z" transform="translate(-207.588 -272.012)" fill="#029b47"/>
    <circle id="Ellipse_5772" data-name="Ellipse 5772" cx="2.733" cy="2.733" r="2.733" transform="translate(28.604 44.089)" fill="#fff"/>
    <path id="Path_157219" data-name="Path 157219" d="M397.893,336H392v11.785a2.525,2.525,0,1,1,5.051,0h3.367v-6.734Z" transform="translate(-350.753 -300.645)" fill="#029b47"/>
    <ellipse id="Ellipse_5773" data-name="Ellipse 5773" cx="2.277" cy="2.733" rx="2.277" ry="2.733" transform="translate(41.356 44.089)" fill="#fff"/>
    <g id="Group_50072" data-name="Group 50072" transform="translate(9.259 0.842)">
      <path id="Path_157220" data-name="Path 157220" d="M92.209,8H88v8.418h6.734Z" transform="translate(-88 -8)" fill="#029b47"/>
      <path id="Path_157221" data-name="Path 157221" d="M216,24l1.684,6.734h5.051L218.525,24Z" transform="translate(-202.532 -22.316)" fill="#029b47"/>
      <path id="Path_157222" data-name="Path 157222" d="M203.3,152l-3.365,7.576,2.524.842L208.349,152Z" transform="translate(-188.158 -136.848)" fill="#029b47"/>
    </g>
    <path id="Path_157223" data-name="Path 157223" d="M21.886,451.367a3.264,3.264,0,0,1-2.394-1.065,1.575,1.575,0,0,0-2.5,0,3.222,3.222,0,0,1-4.788,0,1.577,1.577,0,0,0-2.5,0,3.228,3.228,0,0,1-4.792,0,1.633,1.633,0,0,0-1.254-.619A1.636,1.636,0,0,0,2.4,450.3,3.266,3.266,0,0,1,0,451.367v-1.684a1.637,1.637,0,0,0,1.255-.619,3.228,3.228,0,0,1,4.792,0,1.58,1.58,0,0,0,2.508,0,3.225,3.225,0,0,1,4.79,0,1.575,1.575,0,0,0,2.5,0,3.223,3.223,0,0,1,4.788,0,1.629,1.629,0,0,0,1.252.619v1.684Z" transform="translate(0 -400.86)" fill="#029b47" stroke="#029b47" stroke-width="1"/>
    <path id="Path_157224" data-name="Path 157224" d="M424,336v5.051h5.051L426.525,336Z" transform="translate(-379.386 -300.645)" fill="#f5fafc"/>
    <path id="Path_157225" data-name="Path 157225" d="M5.184,247.965l-3.261-9.129,8.178-2.725v11.568a3.355,3.355,0,0,1,1.684,0V236.112l8.178,2.726L16.7,247.971a2.97,2.97,0,0,1,1.54-.4,3.411,3.411,0,0,1,.382.024l3.214-9a.842.842,0,0,0-.527-1.082l-2.052-.684-1.594-8.769a.841.841,0,0,0-.827-.691H13.468v-2.525a.842.842,0,0,0-.842-.842H9.259a.842.842,0,0,0-.842.842v2.525H5.051a.843.843,0,0,0-.828.691l-1.594,8.769-2.052.684a.842.842,0,0,0-.527,1.082l3.215,9a3.517,3.517,0,0,1,.387-.024,2.984,2.984,0,0,1,1.534.4ZM10.1,225.684h1.684v1.684H10.1Zm-.842,3.367h6.874l1.3,7.169-6.227-2.076a.856.856,0,0,0-.267-.043.847.847,0,0,0-.266.043L4.45,236.22l1.3-7.169Z" transform="translate(0 -200.43)" fill="#029b47" stroke="#029b47" stroke-width="1"/>
    <path id="Path_157226" data-name="Path 157226" d="M80.056,9.535c.009.026.016.053.028.078a.826.826,0,0,0,.163.242l5.259,5.261a11.533,11.533,0,0,0,8.21,3.4h.226L91.85,23.228a.842.842,0,0,0,.5,1.141l2.524.842a.859.859,0,0,0,.267.043.841.841,0,0,0,.689-.359l4.46-6.375h15.813a2.615,2.615,0,0,0,1.848-4.463l-2.608-2.61a10.269,10.269,0,0,0-7.309-3.029h-6.525L97.55,2.079a.845.845,0,0,0-.715-.4H94.31a.842.842,0,0,0-.817,1.046l1.422,5.688H88.2L85.857.6a.843.843,0,0,0-.806-.6H80.842A.842.842,0,0,0,80,.842V9.26c0,.019.009.034.01.052A.848.848,0,0,0,80.056,9.535Zm1.628-7.851h2.741l2.02,6.734H81.684ZM96.369,3.367l3.157,5.051H96.651L95.389,3.367ZM95.994,10.1h12.043a8.574,8.574,0,0,1,5.112,1.684h-6.212v1.684h8.048l.862.863.915.915a.931.931,0,0,1-.657,1.589H101.47l.251-.359a.842.842,0,0,0-.689-1.324H95.985a.892.892,0,0,0-.769.5l-.525,1.184h-.974a9.839,9.839,0,0,1-6.592-2.522c-.143-.128-.29-.251-.427-.388L82.873,10.1H95.994ZM93.766,23.065l2.767-6.229h2.884l-4.6,6.579Z" transform="translate(-71.582)" fill="#029b47" stroke="#029b47" stroke-width="1"/>
    <path id="Path_157227" data-name="Path 157227" d="M72,288h6.734v1.684H72Z" transform="translate(-64.424 -257.696)" fill="#fff" stroke="#029b47" stroke-width="1"/>
    <path id="Path_157228" data-name="Path 157228" d="M176,112h1.683v1.684H176Z" transform="translate(-157.481 -100.215)" fill="#029b47"/>
    <path id="Path_157229" data-name="Path 157229" d="M208,112h1.683v1.684H208Z" transform="translate(-186.114 -100.215)" fill="#029b47"/>
    <path id="Path_157230" data-name="Path 157230" d="M240,112h1.683v1.684H240Z" transform="translate(-214.747 -100.215)" fill="#029b47"/>
    <path id="Path_157231" data-name="Path 157231" d="M272,112h1.683v1.684H272Z" transform="translate(-243.38 -100.215)" fill="#029b47"/>
    <path id="Path_157232" data-name="Path 157232" d="M304.008,112h1.683v1.684h-1.683Z" transform="translate(-272.02 -100.215)" fill="#029b47"/>
    <path id="Path_157233" data-name="Path 157233" d="M250.849,304.883l-2.525-5.051a.843.843,0,0,0-.753-.466h-5.051v-2.525a.842.842,0,0,0-.842-.842H224.842a.842.842,0,0,0-.842.842v15.152a.842.842,0,0,0,.842.842h3.487a3.351,3.351,0,0,0,6.5,0h6.132a3.351,3.351,0,0,0,6.5,0H250.1a.842.842,0,0,0,.842-.842V305.26c0-.009-.006-.017-.006-.026a.851.851,0,0,0-.082-.35Zm-3.5,5.929c-.019-.051-.032-.1-.053-.152a3.327,3.327,0,0,0-.289-.53c-.024-.036-.055-.067-.08-.1a3.544,3.544,0,0,0-.3-.364c-.049-.051-.1-.1-.155-.143a3.586,3.586,0,0,0-.3-.25c-.062-.045-.126-.086-.191-.127a3.349,3.349,0,0,0-.338-.183c-.069-.033-.137-.066-.209-.093a3.324,3.324,0,0,0-.4-.124c-.065-.017-.128-.038-.194-.051a3.273,3.273,0,0,0-.632-.065,3.329,3.329,0,0,0-.6.061c-.048.008-.094.018-.141.029a3.293,3.293,0,0,0-.559.174c-.008,0-.013.008-.021.01a3.357,3.357,0,0,0-.357.178v-8.028H244.2v4.209a.842.842,0,0,0,.842.842h4.209v5.051h-1.79a3.524,3.524,0,0,0-.12-.34Zm-3.142,2.865a1.684,1.684,0,1,1,1.684-1.684A1.685,1.685,0,0,1,244.2,313.677Zm-9.485-2.865c-.019-.051-.032-.1-.053-.152a3.327,3.327,0,0,0-.289-.53c-.024-.036-.055-.067-.08-.1a3.542,3.542,0,0,0-.3-.364c-.049-.051-.1-.1-.155-.143a3.586,3.586,0,0,0-.3-.25c-.062-.045-.126-.086-.191-.127a3.349,3.349,0,0,0-.338-.183c-.069-.033-.137-.066-.209-.093a3.324,3.324,0,0,0-.4-.124c-.065-.017-.128-.038-.194-.051a3.273,3.273,0,0,0-.632-.065,3.323,3.323,0,0,0-.631.064c-.067.013-.129.034-.194.05a3.371,3.371,0,0,0-.4.124c-.072.028-.14.061-.209.093a3.357,3.357,0,0,0-.338.184c-.066.04-.13.082-.191.127a3.072,3.072,0,0,0-.3.25c-.052.048-.106.093-.155.143a3.353,3.353,0,0,0-.3.364c-.025.035-.056.066-.08.1a3.32,3.32,0,0,0-.289.53c-.021.05-.035.1-.053.152a3.387,3.387,0,0,0-.119.34h-2.633V297.684h15.152v13.469h-6a3.308,3.308,0,0,0-.12-.34Zm-3.142,2.865a1.684,1.684,0,1,1,1.684-1.684A1.685,1.685,0,0,1,231.576,313.677Zm17.157-9.26h-2.847v-3.367h1.163Z" transform="translate(-200.43 -264.854)" fill="#029b47"/>
  </g>
</svg>
