<svg id="coal-factory" xmlns="http://www.w3.org/2000/svg" width="49.828" height="53.636" viewBox="0 0 49.828 53.636">
  <path id="Path_157168" data-name="Path 157168" d="M104.184,88H97.305l.462,1.85h5.954Zm0,0" transform="translate(-86.057 -77.828)" fill="#029b47"/>
  <path id="Path_157169" data-name="Path 157169" d="M82.664,134.057a.924.924,0,0,1,1.132.018l3.989,3.192,2.355-1.413a.924.924,0,0,1,1.13.139l1.2,1.195L89.824,120h-.131v3.7h-1.85V120h-.925v1.85h-1.85V120h-1.06l-2.337,14.8Zm0,0" transform="translate(-72.231 -106.129)" fill="#029b47"/>
  <path id="Path_157170" data-name="Path 157170" d="M182,296.925h.122a.924.924,0,0,1,.918,1.033l-.749,6.365h7.229V296h-6.9Zm0,0" transform="translate(-160.962 -261.784)" fill="#029b47"/>
  <path id="Path_157171" data-name="Path 157171" d="M268.677,200h-1.488l-3.005,2.774h4.493Zm0,0" transform="translate(-233.645 -176.881)" fill="#029b47"/>
  <path id="Path_157172" data-name="Path 157172" d="M282.475,315.42V296h-19.42v19.42H268.6v-6.473a.925.925,0,0,1,.925-.925H276a.925.925,0,0,1,.925.925v6.473Zm-12.022-12.947a.925.925,0,0,1-.925.925h-3.7a.925.925,0,0,1-.925-.925v-3.7a.925.925,0,0,1,.925-.925h3.7a.925.925,0,0,1,.925.925ZM276,303.4a.925.925,0,0,1-.925-.925v-3.7a.925.925,0,0,1,.925-.925h3.7a.925.925,0,0,1,.925.925v3.7a.925.925,0,0,1-.925.925Zm0,0" transform="translate(-232.647 -261.784)" fill="#029b47"/>
  <path id="Path_157173" data-name="Path 157173" d="M295.055,328h1.85v1.85h-1.85Zm0,0" transform="translate(-260.948 -290.085)" fill="#029b47"/>
  <path id="Path_157174" data-name="Path 157174" d="M383.055,328h1.85v1.85h-1.85Zm0,0" transform="translate(-338.775 -290.085)" fill="#029b47"/>
  <path id="Path_157175" data-name="Path 157175" d="M211.679,385.85V384h-4.624v9.248h4.624V391.4h-1.85v-1.849h1.85V387.7h-1.85v-1.85Zm0,0" transform="translate(-183.12 -339.611)" fill="#029b47"/>
  <path id="Path_157176" data-name="Path 157176" d="M32.971,273.23l-1.916,1.277v2.279h4.624v-2.2Zm0,0" transform="translate(-27.465 -241.646)" fill="#029b47"/>
  <path id="Path_157177" data-name="Path 157177" d="M.272,321.85H19.951l.217-1.85H.054Zm0,0" transform="translate(-0.048 -283.009)" fill="#029b47"/>
  <path id="Path_157178" data-name="Path 157178" d="M203.52,244.455h11.506v-4.624h-6.473v-.022Zm0,0" transform="translate(-179.994 -212.088)" fill="#029b47"/>
  <path id="Path_157179" data-name="Path 157179" d="M327.055,421.549h4.624V416h-4.624Zm.925-3.7h1.849V419.7H327.98Zm0,0" transform="translate(-289.249 -367.912)" fill="#029b47"/>
  <path id="Path_157180" data-name="Path 157180" d="M79.23,260.671v2.774H82.57l-.519-1.557a.924.924,0,0,1,.4-1.085l.578-.347-2.895-2.312-1.929,1.446.512.255a.925.925,0,0,1,.511.825Zm0,0" transform="translate(-69.167 -228.304)" fill="#029b47"/>
  <path id="Path_157181" data-name="Path 157181" d="M0,273.844l1.387,2.774H1.74v-2.774a.92.92,0,0,1,.158-.5l-1.5-.3Zm0,0" transform="translate(0 -241.477)" fill="#029b47"/>
  <path id="Path_157182" data-name="Path 157182" d="M319.055,244.161v.462h10.172V240h-6.472Zm0,0" transform="translate(-282.174 -212.257)" fill="#029b47"/>
  <path id="Path_157183" data-name="Path 157183" d="M370.131,200h-2.359l-2.467,2.774h4.826Zm0,0" transform="translate(-323.077 -176.881)" fill="#029b47"/>
  <path id="Path_157184" data-name="Path 157184" d="M34.754,433.85A1.85,1.85,0,1,1,32.9,432,1.85,1.85,0,0,1,34.754,433.85Zm0,0" transform="translate(-27.465 -382.063)" fill="#029b47"/>
  <path id="Path_157185" data-name="Path 157185" d="M128.672,276.092l.48,1.438h3.462l1.154-1.732-1.728-1.728Zm0,0" transform="translate(-113.798 -242.389)" fill="#029b47"/>
  <path id="Path_157186" data-name="Path 157186" d="M114.754,433.85A1.85,1.85,0,1,1,112.9,432,1.85,1.85,0,0,1,114.754,433.85Zm0,0" transform="translate(-98.218 -382.063)" fill="#029b47"/>
  <path id="Path_157187" data-name="Path 157187" d="M21.665,362.172H21.9L23.1,352H3.856l1.192,10.172h.234a3.682,3.682,0,0,1,7.136,0H14.53a3.682,3.682,0,0,1,7.136,0Zm0,0" transform="translate(-3.41 -311.31)" fill="#029b47"/>
  <path id="Path_157188" data-name="Path 157188" d="M155.976,392.323H154.92a3.687,3.687,0,0,1-.392.925h4.222V384h-.973l-.883,7.507A.924.924,0,0,1,155.976,392.323Zm0,0" transform="translate(-136.665 -339.611)" fill="#029b47"/>
  <path id="Path_157189" data-name="Path 157189" d="M135.055,33.85V35.7h1.85v-.925h1.85a.925.925,0,0,0,.925-.925V32h-1.85v.925h-1.85A.925.925,0,0,0,135.055,33.85Zm0,0" transform="translate(-119.443 -28.301)" fill="#029b47"/>
  <path id="Path_157190" data-name="Path 157190" d="M104.9,5.549V3.7h1.85a.925.925,0,0,0,.925-.925V0h-1.85V1.85h-1.85a.925.925,0,0,0-.925.925V7.4h1.85Zm0,0" transform="translate(-91.142)" fill="#029b47"/>
  <path id="Path_157191" data-name="Path 157191" d="M159.055,0h1.85V1.85h-1.85Zm0,0" transform="translate(-140.669)" fill="#029b47"/>
</svg>
